# Blender v2.70 (sub 0) OBJ File: ''
# www.blender.org
v 0.000000 -0.500000 -1.000000
v 0.195090 -0.500000 -0.980785
v 0.382683 -0.500000 -0.923880
v 0.555570 -0.500000 -0.831470
v 0.707107 -0.500000 -0.707107
v 0.831470 -0.500000 -0.555570
v 0.923880 -0.500000 -0.382683
v 0.980785 -0.500000 -0.195090
v 1.000000 -0.500000 -0.000000
v 0.000000 0.500000 0.000000
v 0.980785 -0.500000 0.195090
v 0.923880 -0.500000 0.382683
v 0.831470 -0.500000 0.555570
v 0.707107 -0.500000 0.707107
v 0.555570 -0.500000 0.831470
v 0.382683 -0.500000 0.923880
v 0.195090 -0.500000 0.980785
v -0.000000 -0.500000 1.000000
v -0.195091 -0.500000 0.980785
v -0.382684 -0.500000 0.923879
v -0.555571 -0.500000 0.831469
v -0.707107 -0.500000 0.707106
v -0.831470 -0.500000 0.555570
v -0.923880 -0.500000 0.382683
v -0.980785 -0.500000 0.195089
v -1.000000 -0.500000 -0.000001
v -0.980785 -0.500000 -0.195091
v -0.923879 -0.500000 -0.382684
v -0.831469 -0.500000 -0.555571
v -0.707106 -0.500000 -0.707108
v -0.555569 -0.500000 -0.831470
v -0.382682 -0.500000 -0.923880
v -0.195089 -0.500000 -0.980786
vt 0.463920 0.581431
vt 0.731960 1.000000
vt 0.438775 0.604543
vt 0.724205 0.000000
vt 0.757901 0.499082
vt 0.686565 0.002004
vt 0.495103 0.559790
vt 0.531125 0.540451
vt 0.570601 0.524157
vt 0.612015 0.511533
vt 0.653774 0.503067
vt 0.694275 0.499082
vt 0.731960 0.499731
vt 0.763143 0.559790
vt 1.000000 1.000000
vt 0.731960 0.581431
vt 0.799165 0.540451
vt 0.838641 0.524157
vt 0.880054 0.511533
vt 0.921814 0.503067
vt 0.962315 0.499082
vt 1.000000 0.499731
vt 0.401089 0.949429
vt 0.438775 0.448511
vt 0.438775 0.948780
vt 0.360589 0.945444
vt 0.318829 0.936977
vt 0.277415 0.924354
vt 0.237939 0.908060
vt 0.201918 0.888721
vt 0.170735 0.867079
vt 0.145589 0.843968
vt 0.462304 0.100371
vt 0.438775 0.125197
vt 0.491955 0.076586
vt 0.526589 0.054758
vt 0.564874 0.035724
vt 0.605339 0.020216
vt 0.646429 0.008830
vt 0.757901 0.002895
vt 0.155394 0.008618
vt 0.430344 0.158843
vt 0.283380 0.439893
vt 0.240995 0.448511
vt 0.197780 0.448511
vt 0.155395 0.439893
vt 0.115469 0.422988
vt 0.048978 0.367210
vt 0.024969 0.330480
vt 0.079536 0.398446
vt 0.008431 0.289668
vt 0.000000 0.246343
vt 0.000000 0.202168
vt 0.079536 0.050065
vt 0.008431 0.158843
vt 0.048978 0.081301
vt 0.115468 0.025523
vt 0.197780 0.000000
vt 0.240995 0.000000
vt 0.283380 0.008618
vt 0.323306 0.025523
vt 0.389797 0.081301
vt 0.359239 0.050065
vt 0.413806 0.118031
vt 0.438775 0.202168
vt 0.438775 0.246343
vt 0.413806 0.330480
vt 0.389797 0.367210
vt 0.430344 0.289668
vt 0.024969 0.118031
vt 0.323306 0.422988
vt 0.359239 0.398446
vn -0.205756 0.705398 -0.678290
vn 0.069476 0.705398 -0.705398
vn -0.334130 0.705398 -0.625116
vn -0.449665 0.705398 -0.547919
vn -0.547918 0.705398 -0.449666
vn -0.625115 0.705398 -0.334132
vn -0.678290 0.705398 -0.205758
vn -0.705398 0.705398 -0.069476
vn -0.705398 0.705398 0.069475
vn -0.678290 0.705398 0.205756
vn -0.625116 0.705398 0.334131
vn -0.547919 0.705398 0.449665
vn -0.449665 0.705398 0.547918
vn -0.334132 0.705398 0.625116
vn -0.205757 0.705398 0.678290
vn -0.069476 0.705398 0.705398
vn 0.069476 0.705398 0.705398
vn 0.205757 0.705398 0.678290
vn 0.334131 0.705398 0.625116
vn 0.449665 0.705398 0.547918
vn 0.547918 0.705398 0.449665
vn 0.625116 0.705398 0.334131
vn 0.678290 0.705398 0.205757
vn 0.705398 0.705398 0.069476
vn 0.705398 0.705398 -0.069476
vn 0.678290 0.705398 -0.205757
vn 0.625116 0.705398 -0.334131
vn 0.547918 0.705398 -0.449665
vn 0.449665 0.705398 -0.547918
vn 0.334131 0.705398 -0.625116
vn -0.069475 0.705398 -0.705398
vn 0.205757 0.705398 -0.678290
vn 0.000000 -1.000000 0.000000
vn 0.000000 -1.000000 -0.000002
vn 0.000000 -1.000000 0.000002
vn 0.000000 -1.000000 0.000001
s off
f 32/1/1 10/2/1 33/3/1
f 1/4/2 10/5/2 2/6/2
f 31/7/3 10/2/3 32/1/3
f 30/8/4 10/2/4 31/7/4
f 29/9/5 10/2/5 30/8/5
f 28/10/6 10/2/6 29/9/6
f 27/11/7 10/2/7 28/10/7
f 26/12/8 10/2/8 27/11/8
f 25/13/9 10/2/9 26/12/9
f 24/14/10 10/15/10 25/16/10
f 23/17/11 10/15/11 24/14/11
f 22/18/12 10/15/12 23/17/12
f 21/19/13 10/15/13 22/18/13
f 20/20/14 10/15/14 21/19/14
f 19/21/15 10/15/15 20/20/15
f 18/22/16 10/15/16 19/21/16
f 17/23/17 10/24/17 18/25/17
f 16/26/18 10/24/18 17/23/18
f 15/27/19 10/24/19 16/26/19
f 14/28/20 10/24/20 15/27/20
f 13/29/21 10/24/21 14/28/21
f 12/30/22 10/24/22 13/29/22
f 11/31/23 10/24/23 12/30/23
f 9/32/24 10/24/24 11/31/24
f 8/33/25 10/5/25 9/34/25
f 7/35/26 10/5/26 8/33/26
f 6/36/27 10/5/27 7/35/27
f 5/37/28 10/5/28 6/36/28
f 4/38/29 10/5/29 5/37/29
f 3/39/30 10/5/30 4/38/30
f 33/40/31 10/5/31 1/4/31
f 2/6/32 10/5/32 3/39/32
f 17/41/33 25/42/33 33/43/33
f 33/43/34 1/44/34 2/45/34
f 2/45/33 3/46/33 4/47/33
f 6/48/33 7/49/33 5/50/33
f 7/49/33 4/47/33 5/50/33
f 8/51/33 9/52/33 11/53/33
f 15/54/33 12/55/33 14/56/33
f 15/54/33 16/57/33 17/41/33
f 17/41/35 18/58/35 19/59/35
f 20/60/33 21/61/33 23/62/33
f 21/61/33 22/63/33 23/62/33
f 23/62/33 24/64/33 25/42/33
f 25/42/33 26/65/33 27/66/33
f 29/67/33 30/68/33 28/69/33
f 12/55/33 13/70/33 14/56/33
f 33/43/33 30/68/33 32/71/33
f 33/43/36 2/45/36 4/47/36
f 7/49/33 8/51/33 33/43/33
f 15/54/33 17/41/33 8/51/33
f 17/41/34 19/59/34 20/60/34
f 30/68/33 33/43/33 25/42/33
f 25/42/33 20/60/33 23/62/33
f 30/68/33 31/72/33 32/71/33
f 30/68/33 27/66/33 28/69/33
f 4/47/33 7/49/33 33/43/33
f 12/55/33 15/54/33 8/51/33
f 17/41/33 20/60/33 25/42/33
f 8/51/33 11/53/33 12/55/33
f 33/43/33 8/51/33 17/41/33
f 27/66/33 30/68/33 25/42/33
