# Blender v2.70 (sub 0) OBJ File: ''
# www.blender.org
v 0.000000 -1.000000 -0.000000
v 0.425323 -0.850654 0.309011
v -0.162456 -0.850654 0.499995
v 0.723607 -0.447220 0.525725
v 0.850648 -0.525736 -0.000000
v -0.525730 -0.850652 -0.000000
v -0.162456 -0.850654 -0.499995
v 0.425323 -0.850654 -0.309011
v 0.951058 -0.000000 0.309013
v -0.276388 -0.447220 0.850649
v 0.262869 -0.525738 0.809012
v 0.000000 -0.000000 1.000000
v -0.894426 -0.447216 -0.000000
v -0.688189 -0.525736 0.499997
v -0.951058 -0.000000 0.309013
v -0.276388 -0.447220 -0.850649
v -0.688189 -0.525736 -0.499997
v -0.587786 0.000000 -0.809017
v 0.723607 -0.447220 -0.525725
v 0.262869 -0.525738 -0.809012
v 0.587786 0.000000 -0.809017
v 0.587786 -0.000000 0.809017
v -0.587786 -0.000000 0.809017
v -0.951058 0.000000 -0.309013
v 0.000000 0.000000 -1.000000
v 0.951058 0.000000 -0.309013
v 0.276388 0.447220 0.850649
v 0.688189 0.525736 0.499997
v 0.162456 0.850654 0.499995
v -0.723607 0.447220 0.525725
v -0.262869 0.525738 0.809012
v -0.425323 0.850654 0.309011
v -0.723607 0.447220 -0.525725
v -0.850648 0.525736 0.000000
v -0.425323 0.850654 -0.309011
v 0.276388 0.447220 -0.850649
v -0.262869 0.525738 -0.809012
v 0.162456 0.850654 -0.499995
v 0.894426 0.447216 0.000000
v 0.688189 0.525736 -0.499997
v 0.525730 0.850652 0.000000
v 0.000000 1.000000 0.000000
vt 0.082438 0.844099
vt 0.127255 1.000000
vt 0.000000 0.911138
vt 0.919341 0.230132
vt 0.870538 0.076548
vt 1.000000 0.159056
vt 0.006151 0.713789
vt 0.137209 0.680686
vt 0.212053 0.857574
vt 0.998936 0.356585
vt 0.670792 0.242445
vt 0.789461 0.223082
vt 0.722719 0.403394
vt 0.562549 0.442896
vt 0.447195 0.370988
vt 0.575306 0.268448
vt 0.860746 0.997244
vt 0.734346 0.997244
vt 0.797728 0.856505
vt 0.227155 0.442897
vt 0.128112 0.536896
vt 0.111799 0.370986
vt 0.868814 0.396157
vt 0.344595 0.268451
vt 0.335396 0.102539
vt 0.447195 0.165910
vt 0.670792 0.370984
vt 0.943822 0.863742
vt 0.239910 0.268448
vt 0.462730 0.543157
vt 0.589050 0.536900
vt 0.529333 0.680686
vt 0.335396 0.844099
vt 0.383146 0.680684
vt 0.454488 0.857574
vt 0.747200 0.690480
vt 0.666541 0.619404
vt 0.796004 0.536896
vt 0.995749 0.702793
vt 0.877081 0.683430
vt 0.942096 0.544133
vt 0.227153 0.094000
vt 0.111799 0.165908
vt 0.128111 0.000000
vt 0.724445 0.083785
vt 0.273441 1.000000
vt 0.331145 0.844099
vt 0.463507 0.536896
vt 0.335397 0.434360
vt 0.077492 0.536900
vt 0.203811 0.543157
vt 0.601696 0.536896
vt 0.283395 0.680685
vt 0.335396 0.165912
vt 0.335396 0.370988
vt 0.805795 0.536896
vt 0.562551 0.093999
vt 0.667605 0.816933
vt 0.000000 0.434357
vt 0.009199 0.268445
vt 0.314028 0.536896
vt 0.932195 0.536896
vt 0.266300 0.000000
vt 0.463508 0.000000
vt 0.352513 0.536896
vt 0.670792 0.165908
vt 0.660390 0.713789
vt 0.584103 0.844099
vt 0.539287 1.000000
vt 0.393100 1.000000
vt 0.666541 0.911138
vt 0.000001 0.102536
vn 0.102381 -0.943523 0.315091
vn 0.700224 -0.661699 0.268032
vn -0.268034 -0.943523 0.194737
vn -0.268034 -0.943523 -0.194737
vn 0.102381 -0.943523 -0.315091
vn 0.904989 -0.330385 0.268032
vn 0.024746 -0.330386 0.943521
vn -0.889697 -0.330386 0.315095
vn -0.574602 -0.330389 -0.748783
vn 0.534577 -0.330387 -0.777864
vn 0.802609 -0.125629 0.583126
vn -0.306568 -0.125630 0.943522
vn -0.992077 -0.125629 -0.000000
vn -0.306568 -0.125630 -0.943522
vn 0.802609 -0.125629 -0.583126
vn 0.408946 0.661699 0.628425
vn -0.471300 0.661699 0.583121
vn -0.700224 0.661699 -0.268032
vn 0.038532 0.661700 -0.748778
vn 0.724042 0.661695 -0.194737
vn -0.038532 -0.661700 0.748778
vn 0.187593 -0.794659 0.577344
vn 0.471300 -0.661699 0.583121
vn 0.700224 -0.661699 -0.268032
vn 0.607060 -0.794656 0.000000
vn 0.331305 -0.943524 -0.000000
vn -0.724042 -0.661695 0.194737
vn -0.491119 -0.794657 0.356822
vn -0.408946 -0.661699 0.628425
vn -0.408946 -0.661699 -0.628425
vn -0.491119 -0.794657 -0.356822
vn -0.724042 -0.661695 -0.194737
vn 0.471300 -0.661699 -0.583122
vn 0.187593 -0.794659 -0.577344
vn -0.038532 -0.661699 -0.748779
vn 0.992077 0.125629 0.000000
vn 0.982246 -0.187599 -0.000000
vn 0.904989 -0.330385 -0.268032
vn 0.306568 0.125630 0.943522
vn 0.303530 -0.187597 0.934172
vn 0.534577 -0.330387 0.777864
vn -0.802609 0.125629 0.583126
vn -0.794656 -0.187596 0.577348
vn -0.574602 -0.330389 0.748783
vn -0.802609 0.125629 -0.583126
vn -0.794656 -0.187596 -0.577348
vn -0.889697 -0.330386 -0.315095
vn 0.306568 0.125630 -0.943522
vn 0.303530 -0.187597 -0.934172
vn 0.024745 -0.330386 -0.943521
vn 0.574602 0.330389 0.748783
vn 0.794656 0.187596 0.577348
vn 0.889697 0.330386 0.315095
vn -0.534577 0.330387 0.777864
vn -0.303530 0.187597 0.934172
vn -0.024745 0.330386 0.943521
vn -0.904989 0.330385 -0.268032
vn -0.982246 0.187599 0.000000
vn -0.904989 0.330385 0.268032
vn -0.024746 0.330386 -0.943521
vn -0.303530 0.187597 -0.934172
vn -0.534577 0.330387 -0.777864
vn 0.889697 0.330386 -0.315095
vn 0.794656 0.187596 -0.577348
vn 0.574602 0.330389 -0.748783
vn 0.268034 0.943523 0.194737
vn 0.491119 0.794657 0.356822
vn 0.724042 0.661695 0.194737
vn -0.102381 0.943523 0.315091
vn -0.187593 0.794659 0.577344
vn 0.038532 0.661699 0.748779
vn -0.331305 0.943524 0.000000
vn -0.607060 0.794656 0.000000
vn -0.700224 0.661699 0.268032
vn -0.102381 0.943523 -0.315091
vn -0.187593 0.794659 -0.577344
vn -0.471300 0.661699 -0.583121
vn 0.268034 0.943523 -0.194737
vn 0.491119 0.794657 -0.356822
vn 0.408946 0.661699 -0.628425
s off
f 1/1/1 2/2/1 3/3/1
f 4/4/2 2/5/2 5/6/2
f 1/1/3 3/3/3 6/7/3
f 1/1/4 6/7/4 7/8/4
f 1/1/5 7/8/5 8/9/5
f 4/4/6 5/6/6 9/10/6
f 10/11/7 11/12/7 12/13/7
f 13/14/8 14/15/8 15/16/8
f 16/17/9 17/18/9 18/19/9
f 19/20/10 20/21/10 21/22/10
f 4/4/11 9/10/11 22/23/11
f 10/24/12 12/25/12 23/26/12
f 13/14/13 15/16/13 24/27/13
f 16/17/14 18/19/14 25/28/14
f 19/20/15 21/22/15 26/29/15
f 27/30/16 28/31/16 29/32/16
f 30/33/17 31/34/17 32/35/17
f 33/36/18 34/37/18 35/38/18
f 36/39/19 37/40/19 38/41/19
f 39/42/20 40/43/20 41/44/20
f 3/45/21 11/12/21 10/11/21
f 3/45/22 2/5/22 11/12/22
f 2/5/23 4/4/23 11/12/23
f 5/46/24 8/9/24 19/47/24
f 5/46/25 2/2/25 8/9/25
f 2/2/26 1/1/26 8/9/26
f 6/48/27 14/15/27 13/14/27
f 6/48/28 3/49/28 14/15/28
f 3/49/29 10/24/29 14/15/29
f 7/8/30 17/50/30 16/51/30
f 7/8/31 6/7/31 17/50/31
f 6/48/32 13/14/32 17/52/32
f 8/9/33 20/53/33 19/47/33
f 8/9/34 7/8/34 20/53/34
f 7/8/35 16/51/35 20/53/35
f 9/54/36 26/29/36 39/42/36
f 9/54/37 5/55/37 26/29/37
f 5/55/38 19/20/38 26/29/38
f 12/13/39 22/23/39 27/56/39
f 12/13/40 11/12/40 22/23/40
f 11/12/41 4/4/41 22/23/41
f 15/16/42 23/26/42 30/57/42
f 15/16/43 14/15/43 23/26/43
f 14/15/44 10/24/44 23/26/44
f 18/19/45 24/58/45 33/36/45
f 18/19/46 17/18/46 24/58/46
f 17/52/47 13/14/47 24/27/47
f 21/22/48 25/59/48 36/60/48
f 21/22/49 20/21/49 25/59/49
f 20/53/50 16/51/50 25/61/50
f 22/23/51 28/62/51 27/56/51
f 22/23/52 9/10/52 28/62/52
f 9/54/53 39/42/53 28/63/53
f 23/26/54 31/64/54 30/57/54
f 23/26/55 12/25/55 31/64/55
f 12/65/56 27/30/56 31/34/56
f 24/58/57 34/37/57 33/36/57
f 24/27/58 15/16/58 34/66/58
f 15/16/59 30/57/59 34/66/59
f 25/28/60 37/40/60 36/39/60
f 25/28/61 18/19/61 37/40/61
f 18/19/62 33/36/62 37/40/62
f 26/29/63 40/43/63 39/42/63
f 26/29/64 21/22/64 40/43/64
f 21/22/65 36/60/65 40/43/65
f 29/32/66 41/67/66 42/68/66
f 29/32/67 28/31/67 41/67/67
f 28/63/68 39/42/68 41/44/68
f 32/35/69 29/32/69 42/68/69
f 32/35/70 31/34/70 29/32/70
f 31/34/71 27/30/71 29/32/71
f 35/69/72 32/35/72 42/68/72
f 35/69/73 34/70/73 32/35/73
f 34/70/74 30/33/74 32/35/74
f 38/71/75 35/69/75 42/68/75
f 38/41/76 37/40/76 35/38/76
f 37/40/77 33/36/77 35/38/77
f 41/67/78 38/71/78 42/68/78
f 41/44/79 40/43/79 38/72/79
f 40/43/80 36/60/80 38/72/80
